<svg viewBox="0 0 200 200" xmlns="http://www.w3.org/2000/svg">
  <path fill="black" d="M46.5,-77.1C59.5,-69,69.2,-57.1,74.3,-43.8C79.4,-30.4,80,-15.2,79.2,0.5C78.5,16.1,76.5,32.2,68.7,44.6C60.9,56.9,47.3,65.4,33.1,72.3C18.9,79.2,4.1,84.5,-10.4,87.1C-24.9,89.7,-49,89.6,-61.7,79.3C-74.3,69,-75.6,48.6,-79.8,30.1C-83.9,11.6,-90.8,-5,-87.9,-18.9C-85.1,-32.7,-72.4,-43.7,-58.4,-52.2C-44.4,-60.7,-29.1,-66.6,-13.2,-72.2C2.8,-77.7,17.7,-82.9,30.9,-80.9C44.2,-78.9,55.8,-69.5,46.5,-77.1Z" transform="translate(100 100)" />
</svg>
